# AST/ASF file generated using VICON BodyLanguage
# -----------------------------------------------
:version 1.10
:name VICON
:units
  mass 1.0
  length 0.45
  angle deg
:documentation
   .ast/.asf automatically generated from VICON data using
   VICON BodyBuilder and BodyLanguage model FoxedUp or BRILLIANT.MOD
:root
   order TX TY TZ RX RY RZ
   axis XYZ
   position 0 0 0  
   orientation 0 0 0 
:bonedata
  begin
     id 1 
     name lhipjoint
     direction 0.547975 -0.797114 0.253638 
     length 2.36201 
     axis 0 0 0  XYZ
  end
  begin
     id 2 
     name lfemur
     direction 0.34202 -0.939693 0  
     length 7.69075  
     axis 0 0 20  XYZ
    dof rx ry rz
    limits (-160.0 20.0)
           (-70.0 70.0)
           (-60.0 70.0)
  end
  begin
     id 3 
     name ltibia
     direction 0.34202 -0.939693 0   
     length 7.91399   
     axis 0 0 20   XYZ
    dof rx
    limits (-10.0 170.0)
  end
  begin
     id 4 
     name lfoot
     direction 0.0705293 -0.193778 0.978507   
     length 2.13618   
     axis -90 7.62852e-016 20   XYZ
    dof rx rz
    limits (-45.0 90.0)
           (-70.0 20.0)
  end
  begin
     id 5 
     name ltoes
     direction 1.53592e-011 -4.21925e-011 1   
     length 1.07518   
     axis -90 7.62852e-016 20   XYZ
    dof rx
    limits (-90.0 20.0)
  end
  begin
     id 6 
     name rhipjoint
     direction -0.57 -0.782963 0.249136   
     length 2.4047  
     axis 0 0 0  XYZ 
  end
  begin
     id 7 
     name rfemur
     direction -0.34202 -0.939693 0   
     length 7.51486   
     axis 0 0 -20   XYZ
    dof rx ry rz
    limits (-160.0 20.0)
           (-70.0 70.0)
           (-70.0 60.0)
  end
  begin
     id 8 
     name rtibia
     direction -0.34202 -0.939693 0   
     length 8.08317   
     axis 0 0 -20   XYZ
    dof rx
    limits (-10.0 170.0)
 end
 begin
     id 9 
     name rfoot
     direction -0.104954 -0.281256 0.953876   
     length 2.30343  
     axis -90 -7.62852e-016 -20   XYZ
    dof rx rz
    limits (-45.0 90.0)
           (-20.0 70.0)
  end
  begin
     id 10 
     name rtoes
     direction -1.53556e-011 -4.21922e-011 1   
     length 1.14803   
     axis -90 -7.62852e-016 -20   XYZ
    dof rx
    limits (-90.0 20.0)
  end
  begin
     id 11 
     name lowerback
     direction -0.0152855 0.99353 -0.11254   
     length 2.05311   
     axis 0 0 0   XYZ
    dof rx ry rz
    limits (-20.0 45.0)
           (-30.0 30.0)
           (-30.0 30.0)
  end
  begin
     id 12 
     name upperback
     direction -0.00157509 0.999443 -0.033332   
     length 2.06353   
     axis 0 0 0   XYZ
    dof rx ry rz
    limits (-20.0 45.0)
           (-30.0 30.0)
           (-30.0 30.0)
  end
  begin
     id 13 
     name thorax
     direction 0.00577788 0.999804 0.0189484   
     length 2.08472   
     axis 0 0 0   XYZ
    dof rx ry rz
    limits (-20.0 45.0)
           (-30.0 30.0)
           (-30.0 30.0)
  end
  begin
     id 14 
     name lowerneck
     direction -1.09301e-005 0.994719 0.10264   
     length 1.76249   
     axis 0 0 0   XYZ
    dof rx ry rz
    limits (-20.0 45.0)
           (-30.0 30.0)
           (-30.0 30.0)
  end
  begin
     id 15 
     name upperneck
     direction 0.0495018 0.988526 -0.142706   
     length 1.77897   
     axis 0 0 0   XYZ
    dof rx ry rz
    limits (-20.0 45.0)
           (-30.0 30.0)
           (-30.0 30.0)
  end
  begin
     id 16
     name head
     direction 0.0142736 0.998114 -0.0597101  
     length 1.78934  
     axis 0 0 0   XYZ
    dof rx ry rz
    limits (-20.0 45.0)
           (-30.0 30.0)
           (-30.0 30.0)
  end
  begin
     id 17 
     name lclavicle
     direction 0.918111 0.396107 -0.0130883  
     length 3.37276  
     axis 0 0 0   XYZ
    dof ry rz
    limits (-20.0 10.0)
           (0.0 20.0)
  end
  begin
     id 18 
     name lhumerus
     direction 1 -4.48975e-011 -3.26108e-027   
     length 5.34298   
     axis 180 -30 -90   XYZ
    dof rx ry rz
    limits (-60.0 90.0)
           (-90.0 90.0)
           (-90.0 90.0)
  end
  begin
     id 19
     name lradius
     direction 1 -4.48964e-011 -8.84413e-028   
     length 3.67262   
     axis 180 -30 -90   XYZ
    dof rx
    limits (-10.0 170.0)
  end
  begin
     id 20
     name lwrist
     direction 1 -4.48991e-011 -1.24264e-027   
     length 1.83631   
     axis -2.17013e-015 90 90   XYZ
    dof ry
    limits (-180.0 0.0)
 end
  begin
     id 21 
     name lhand
     direction 1 -4.48855e-011 -2.48528e-027   
     length 0.599298   
     axis 1.58582e-015 90 90   XYZ
    dof rx rz
    limits (-90.0 90.0)
           (-45.0 45.0)
  end
  begin
     id 22 
     name lfingers
     direction 1 -4.48811e-011 -4.97056e-027   
     length 0.48317   
     axis 3.17164e-015 90 90   XYZ
    dof rx
    limits (0.0 90.0)
  end
  begin
     id 23
     name lthumb
     direction 0.707107 -6.34882e-011 0.707107   
     length 0.693738   
     axis -90 45 2.85299e-015   XYZ
    dof rx rz
    limits (-45.0 45.0)
           (-45.0 45.0)
  end
  begin
     id 24 
     name rclavicle
     direction -0.920511 0.384752 -0.0680135   
     length 3.43787  
     axis 0 0 0   XYZ 
    dof ry rz
    limits (-10.0 20.0)
           (-20.0 0.0)
  end
  begin
     id 25 
     name rhumerus
     direction -0.999976 -0.00330524 0.00603274  
     length 5.5498   
     axis 180 30 90   XYZ
    dof rx ry rz
    limits (-90.0 60.0)
           (-90.0 90.0)
           (-90.0 90.0)
  end
  begin
     id 26 
     name rradius
     direction -1 -4.48967e-011 8.62438e-027   
     length 3.69401   
     axis 180 30 90   XYZ
    dof rx
    limits (-10.0 170.0)
  end
  begin
     id 27 
     name rwrist
     direction -1 -4.4897e-011 9.54866e-027   
     length 1.84701   
     axis -7.69462e-015 -90 -90   XYZ
    dof ry
    limits (-180.0 0.0)
  end
  begin
     id 28
     name rhand
     direction -1 -4.48982e-011 1.90973e-026   
     length 0.638113   
     axis -1.21857e-014 -90 -90   XYZ
    dof rx rz
    limits (-90.0 90.0)
           (-45.0 45.0)
  end
  begin
     id 29
     name rfingers
     direction -1 -4.48936e-011 3.81946e-026   
     length 0.514463   
     axis -2.43714e-014 -90 -90   XYZ
    dof rx
    limits (0.0 90.0)
  end
  begin
     id 30
     name rthumb
     direction -0.707107 -6.34942e-011 0.707107   
     length 0.738669   
     axis -90 -45 -2.85299e-015   XYZ
    dof rx rz
    limits (-45.0 45.0)
           (-45.0 45.0)
  end
:hierarchy
  begin
    root lhipjoint rhipjoint lowerback
    lhipjoint lfemur
    lfemur ltibia
    ltibia lfoot
    lfoot ltoes
    rhipjoint rfemur
    rfemur rtibia
    rtibia rfoot
    rfoot rtoes
    lowerback upperback
    upperback thorax
    thorax lowerneck lclavicle rclavicle
    lowerneck upperneck
    upperneck head
    lclavicle lhumerus
    lhumerus lradius
    lradius lwrist
    lwrist lhand lthumb
    lhand lfingers
    rclavicle rhumerus
    rhumerus rradius
    rradius rwrist
    rwrist rhand rthumb
    rhand rfingers
  end

#!OML:ASF F:\twosubjects\two\Thursday\Session 1\Rory.ASF
:FULLY-SPECIFIED
:DEGREES
126
root -0.516715 18.4333 8.55811 -176.177 78.8344 -178.281
lowerback 5.66496 -0.620552 -0.986957
upperback 2.95841 -0.804309 -0.622546
thorax -0.128683 -0.376452 -0.0398735
lowerneck -10.6022 -3.64208 -3.87249
upperneck 33.5634 -3.94451 2.84049
head 13.141 -1.39186 1.34072
rclavicle -1.91827e-014 -1.11319e-014
rhumerus -22.6009 27.16 -93.2509
rradius 77.9279
rwrist -10.3369
rhand -18.4461 1.16867
rfingers 7.12502
rthumb 7.83981 -28.666
lclavicle -1.91827e-014 -1.11319e-014
lhumerus -19.789 -11.9435 89.1088
lradius 62.0472
lwrist 5.77649
lhand -10.515 37.023
lfingers 7.12502
lthumb 15.4877 66.4227
rfemur -15.6715 17.4688 14.1204
rtibia 28.6197
rfoot -13.3685 13.7354
rtoes 8.90514
lfemur -17.1155 -13.0963 -3.208
ltibia 12.9949
lfoot 1.07183 2.83983
ltoes 7.08152
127
root -0.517466 18.4242 8.44421 -177.089 80.3243 -179.12
lowerback 5.67115 -0.643154 -1.2599
upperback 2.92531 -0.850118 -0.798497
thorax -0.164166 -0.400962 -0.0645275
lowerneck -11.0628 -3.35466 -3.73787
upperneck 33.9362 -3.52135 2.73395
head 13.378 -1.20155 1.33576
rclavicle 1.10822e-014 -5.1684e-015
rhumerus -22.8927 27.7426 -93.8588
rradius 78.4339
rwrist -10.5172
rhand -19.1105 1.0692
rfingers 7.12502
rthumb 7.19851 -28.7884
lclavicle 1.10822e-014 -5.1684e-015
lhumerus -20.0172 -12.2618 88.9211
lradius 63.0861
lwrist 6.87225
lhand -9.71548 38.0905
lfingers 7.12502
lthumb 16.2576 67.4289
rfemur -15.8278 17.9848 13.4991
rtibia 28.6481
rfoot -13.7185 14.2922
rtoes 5.90446
lfemur -16.4017 -13.242 -3.20379
ltibia 11.7688
lfoot 1.92005 2.18893
ltoes 2.84413
128
root -0.51982 18.4091 8.33022 -176.726 81.6602 -178.654
lowerback 5.73417 -0.74009 -1.41576
upperback 2.904 -0.989587 -0.710756
thorax -0.215544 -0.473287 0.121701
lowerneck -11.5024 -3.0476 -3.75117
upperneck 34.215 -2.92004 2.28976
head 13.5638 -1.00195 1.24883
rclavicle 2.5842e-014 -9.93923e-015
rhumerus -23.2406 28.6457 -94.2038
rradius 79.0833
rwrist -11.2372
rhand -19.5556 0.411468
rfingers 7.12502
rthumb 6.76882 -29.4603
lclavicle 2.5842e-014 -9.93923e-015
lhumerus -20.1256 -12.2068 89.112
lradius 63.8281
lwrist 7.60357
lhand -9.79938 38.8403
lfingers 7.12502
lthumb 16.1768 68.1853
rfemur -15.9873 18.2374 13.1522
rtibia 28.7049
rfoot -14.0577 14.8129
rtoes 2.30086
lfemur -15.6621 -12.7335 -3.23607
ltibia 10.4741
lfoot 3.01496 0.408581
ltoes -7.30253
129
root -0.521524 18.4003 8.21456 -178.009 83.0588 -179.871
lowerback 5.7393 -0.764636 -1.82148
upperback 2.8634 -1.04501 -0.70799
thorax -0.251424 -0.505207 0.355402
lowerneck -11.4751 -2.76675 -3.55223
upperneck 34.0344 -2.40202 1.73277
head 13.4457 -0.835784 1.06459
rclavicle 1.2921e-015 -1.15295e-014
rhumerus -23.5804 29.3646 -94.5213
rradius 79.704
rwrist -11.9398
rhand -20.0378 -0.684241
rfingers 7.12502
rthumb 6.30335 -30.5705
lclavicle 1.2921e-015 -1.15295e-014
lhumerus -20.1771 -12.1829 89.3103
lradius 64.34
lwrist 7.74869
lhand -9.52245 38.7755
lfingers 7.12502
lthumb 16.4435 68.0986
rfemur -16.1779 18.4666 12.5013
rtibia 28.7021
rfoot -13.982 15.5635
rtoes 1.56618
lfemur -14.9795 -12.6777 -3.36994
ltibia 9.35759
lfoot 3.96327 -0.978844
ltoes -15.344
130
root -0.521957 18.3897 8.09413 -179.792 84.5184 -181.626
lowerback 5.75263 -0.773449 -2.03921
upperback 2.75175 -1.07418 -0.887316
thorax -0.372147 -0.520099 0.29626
lowerneck -11.226 -2.4099 -3.21612
upperneck 33.7557 -1.91736 1.48071
head 13.2435 -0.625146 0.972957
rclavicle -2.18663e-015 9.14409e-015
rhumerus -23.8937 29.7529 -95.0097
rradius 80.0799
rwrist -12.2915
rhand -19.0825 -1.16219
rfingers 7.12502
rthumb 7.22553 -31.0188
lclavicle -2.18663e-015 9.14409e-015
lhumerus -20.4101 -11.9959 89.3133
lradius 64.9498
lwrist 7.75367
lhand -8.10213 38.6812
lfingers 7.12502
lthumb 17.8106 67.8856
rfemur -16.3176 18.9945 11.7977
rtibia 28.4008
rfoot -13.4448 16.2934
rtoes 3.39466
lfemur -14.3635 -12.5341 -3.44446
ltibia 8.50684
lfoot 4.62673 -1.91909
ltoes -15.2162
131
root -0.530066 18.377 7.97516 -172.301 85.8844 -174.164
lowerback 5.78698 -0.774531 -1.42492
upperback 2.6132 -1.05358 -0.883586
thorax -0.5462 -0.506016 -0.0433692
lowerneck -11.02 -2.09012 -3.14016
upperneck 33.4609 -1.51915 1.52
head 13.0579 -0.446774 1.02737
rclavicle -2.78299e-015 7.95139e-016
rhumerus -24.1839 29.7953 -95.4355
rradius 80.5443
rwrist -12.3859
rhand -17.7981 -1.5154
rfingers 7.12502
rthumb 8.46522 -31.3257
lclavicle -2.78299e-015 7.95139e-016
lhumerus -20.7054 -11.8632 89.4751
lradius 65.6627
lwrist 8.26788
lhand -7.33436 39.0877
lfingers 7.12502
lthumb 18.5492 68.2233
rfemur -16.5898 19.6883 11.9172
rtibia 28.1014
rfoot -12.8466 16.7215
rtoes 5.54006
lfemur -13.9107 -12.367 -2.5593
ltibia 7.60771
lfoot 5.47768 -2.54026
ltoes -8.55614
132
root -0.496242 18.4101 7.82607 -180.182 88.1365 -181.633
lowerback 5.42789 -0.398772 -1.55869
upperback 2.84485 -0.544139 -1.24584
thorax -0.115151 -0.250494 -0.374718
lowerneck -11.0103 -1.94018 -2.83811
upperneck 33.3055 -1.32094 1.27161
head 12.9774 -0.362844 0.901795
rclavicle -4.96962e-016 -1.63003e-014
rhumerus -24.338 29.2425 -95.7909
rradius 81.2823
rwrist -11.8588
rhand -18.3745 -1.62182
rfingers 7.12502
rthumb 7.90891 -31.4539
lclavicle -4.96962e-016 -1.63003e-014
lhumerus -20.8828 -12.4116 89.6671
lradius 66.2849
lwrist 9.451
lhand -7.93937 39.0625
lfingers 7.12502
lthumb 17.9672 68.2526
rfemur -16.2144 20.1428 11.0219
rtibia 27.8069
rfoot -12.2535 18.4102
rtoes 8.23202
lfemur -12.329 -11.6718 -3.33179
ltibia 6.68885
lfoot 6.4306 -2.99853
ltoes -1.67766
133
root -0.489994 18.3906 7.6955 -256.039 89.5303 -257.241
lowerback 5.36578 -0.168518 -1.9489
upperback 2.93809 -0.247752 -1.55201
thorax 0.0150854 -0.102774 -0.486686
lowerneck -11.0439 -1.79361 -2.14296
upperneck 33.2097 -1.1554 0.816465
head 12.9279 -0.270316 0.623165
rclavicle 3.97569e-016 -1.07344e-014
rhumerus -24.3742 29.1275 -96.1548
rradius 81.4382
rwrist -11.7401
rhand -19.7136 -1.15882
rfingers 7.12502
rthumb 6.61631 -31.0355
lclavicle 3.97569e-016 -1.07344e-014
lhumerus -21.1207 -13.2729 89.6867
lradius 66.9639
lwrist 10.7194
lhand -7.92412 39.5377
lfingers 7.12502
lthumb 17.9819 68.7264
rfemur -16.3011 20.5424 10.1622
rtibia 27.687
rfoot -11.8839 19.4232
rtoes 7.8978
lfemur -11.1577 -11.3723 -3.99327
ltibia 6.22856
lfoot 6.11873 -4.21347
ltoes -11.7692
134
root -0.515534 18.3645 7.57822 -338.237 88.7295 -339.508
lowerback 5.53211 -0.192736 -2.2375
upperback 2.78723 -0.306486 -1.54667
thorax -0.230153 -0.134377 -0.315575
lowerneck -11.1253 -1.56681 -1.9121
upperneck 33.2369 -0.816432 0.570232
head 12.9473 -0.130809 0.533143
rclavicle 6.85807e-015 -3.97569e-015
rhumerus -24.636 29.3619 -96.4539
rradius 81.913
rwrist -11.8224
rhand -20.3661 -1.19394
rfingers 7.12502
rthumb 5.98636 -31.0894
lclavicle 6.85807e-015 -3.97569e-015
lhumerus -21.5789 -13.5093 89.8708
lradius 67.8644
lwrist 11.644
lhand -5.96844 40.8155
lfingers 7.12502
lthumb 19.8627 69.8205
rfemur -16.878 20.9559 9.65898
rtibia 27.5975
rfoot -11.5949 19.8269
rtoes 6.4452
lfemur -11.0587 -11.3568 -3.85873
ltibia 6.22396
lfoot 5.61585 -4.34112
ltoes -12.2822
135
root -0.539364 18.3349 7.46248 -353.025 87.4311 -354.242
lowerback 5.72909 -0.215077 -2.53882
upperback 2.75135 -0.360512 -1.30251
thorax -0.371976 -0.165573 0.107775
lowerneck -11.3451 -1.34233 -2.08678
upperneck 33.2923 -0.390374 0.364238
head 13.0133 -0.000100824 0.54232
rclavicle -1.19271e-015 -3.18055e-015
rhumerus -24.7002 29.786 -96.2815
rradius 82.5332
rwrist -11.8689
rhand -20.8883 -1.50443
rfingers 7.12502
rthumb 5.48221 -31.4135
lclavicle -1.19271e-015 -3.18055e-015
lhumerus -21.8974 -13.5704 90.198
lradius 68.6525
lwrist 12.5116
lhand -4.12004 41.1671
lfingers 7.12502
lthumb 21.6387 69.978
rfemur -17.3921 21.5256 9.39399
rtibia 27.6612
rfoot -11.0586 20.3517
rtoes 7.20037
lfemur -10.9331 -11.3009 -3.56389
ltibia 6.58133
lfoot 4.86991 -4.31351
ltoes -10.9265
